<svg width="20" height="21" viewBox="0 0 20 21" fill="none" xmlns="http://www.w3.org/2000/svg">
<g id="vuesax/bold/location">
<path id="Vector" d="M7.26594 17.3343L7.26611 17.3345C8.0344 18.0738 9.01731 18.4418 10.0001 18.4418C10.9834 18.4418 11.9649 18.0735 12.7237 17.3365L12.7259 17.3343L12.7259 17.3343C15.0763 15.0743 17.4992 11.6485 16.5983 7.6748L7.26594 17.3343ZM7.26594 17.3343C4.91593 15.0747 2.49256 11.6405 3.39349 7.66647L7.26594 17.3343ZM10.0001 2.5585C12.7412 2.5585 15.7998 4.16184 16.5983 7.67451L3.39356 7.66617C4.19175 4.15481 7.25738 2.5585 9.99175 2.5585H9.99179H9.99184H9.99189H9.99194H9.99199H9.99203H9.99208H9.99213H9.99218H9.99222H9.99227H9.99232H9.99236H9.99241H9.99246H9.9925H9.99255H9.99259H9.99264H9.99268H9.99273H9.99277H9.99282H9.99286H9.99291H9.99295H9.993H9.99304H9.99308H9.99313H9.99317H9.99321H9.99326H9.9933H9.99334H9.99338H9.99342H9.99347H9.99351H9.99355H9.99359H9.99363H9.99367H9.99371H9.99376H9.9938H9.99384H9.99388H9.99392H9.99396H9.994H9.99404H9.99407H9.99411H9.99415H9.99419H9.99423H9.99427H9.99431H9.99435H9.99438H9.99442H9.99446H9.9945H9.99453H9.99457H9.99461H9.99464H9.99468H9.99472H9.99475H9.99479H9.99483H9.99486H9.9949H9.99493H9.99497H9.995H9.99504H9.99507H9.99511H9.99514H9.99518H9.99521H9.99524H9.99528H9.99531H9.99535H9.99538H9.99541H9.99545H9.99548H9.99551H9.99554H9.99558H9.99561H9.99564H9.99567H9.99571H9.99574H9.99577H9.9958H9.99583H9.99586H9.99589H9.99592H9.99595H9.99598H9.99602H9.99605H9.99608H9.99611H9.99613H9.99616H9.99619H9.99622H9.99625H9.99628H9.99631H9.99634H9.99637H9.9964H9.99642H9.99645H9.99648H9.99651H9.99654H9.99656H9.99659H9.99662H9.99664H9.99667H9.9967H9.99673H9.99675H9.99678H9.9968H9.99683H9.99686H9.99688H9.99691H9.99693H9.99696H9.99698H9.99701H9.99703H9.99706H9.99708H9.99711H9.99713H9.99716H9.99718H9.99721H9.99723H9.99725H9.99728H9.9973H9.99732H9.99735H9.99737H9.99739H9.99742H9.99744H9.99746H9.99748H9.99751H9.99753H9.99755H9.99757H9.9976H9.99762H9.99764H9.99766H9.99768H9.9977H9.99772H9.99774H9.99777H9.99779H9.99781H9.99783H9.99785H9.99787H9.99789H9.99791H9.99793H9.99795H9.99797H9.99799H9.99801H9.99802H9.99804H9.99806H9.99808H9.9981H9.99812H9.99814H9.99816H9.99817H9.99819H9.99821H9.99823H9.99825H9.99826H9.99828H9.9983H9.99832H9.99833H9.99835H9.99837H9.99839H9.9984H9.99842H9.99844H9.99845H9.99847H9.99848H9.9985H9.99852H9.99853H9.99855H9.99856H9.99858H9.9986H9.99861H9.99863H9.99864H9.99866H9.99867H9.99869H9.9987H9.99872H9.99873H9.99874H9.99876H9.99877H9.99879H9.9988H9.99882H9.99883H9.99884H9.99886H9.99887H9.99888H9.9989H9.99891H9.99892H9.99894H9.99895H9.99896H9.99897H9.99899H9.999H9.99901H9.99902H9.99904H9.99905H9.99906H9.99907H9.99908H9.9991H9.99911H9.99912H9.99913H9.99914H9.99915H9.99917H9.99918H9.99919H9.9992H9.99921H9.99922H9.99923H9.99924H9.99925H9.99926H9.99927H9.99928H9.99929H9.9993H9.99931H9.99932H9.99933H9.99934H9.99935H9.99936H9.99937H9.99938H9.99939H9.9994H9.99941H9.99942H9.99943H9.99944H9.99944H9.99945H9.99946H9.99947H9.99948H9.99949H9.9995H9.9995H9.99951H9.99952H9.99953H9.99954H9.99954H9.99955H9.99956H9.99957H9.99957H9.99958H9.99959H9.9996H9.9996H9.99961H9.99962H9.99963H9.99963H9.99964H9.99965H9.99965H9.99966H9.99967H9.99967H9.99968H9.99969H9.99969H9.9997H9.9997H9.99971H9.99972H9.99972H9.99973H9.99973H9.99974H9.99975H9.99975H9.99976H9.99976H9.99977H9.99977H9.99978H9.99978H9.99979H9.99979H9.9998H9.9998H9.99981H9.99981H9.99982H9.99982H9.99983H9.99983H9.99984H9.99984H9.99985H9.99985H9.99986H9.99986H9.99987H9.99987H9.99987H9.99988H9.99988H9.99989H9.99989H9.99989H9.9999H9.9999H9.9999H9.99991H9.99992H9.99992H9.99993H9.99993H9.99994H9.99995H9.99995H9.99996H9.99996H9.99997H9.99997H9.99998H9.99998H9.99999H9.99999H10H10H10H10H10H10H10H10H10H10H10H10H10.0001H10.0001H10.0001H10.0001H10.0001H10.0001H10.0001H10.0001ZM6.77508 9.09183C6.77508 10.8732 8.21871 12.3168 10.0001 12.3168C11.7814 12.3168 13.2251 10.8732 13.2251 9.09183C13.2251 7.31046 11.7815 5.86683 10.0001 5.86683C8.21871 5.86683 6.77508 7.31046 6.77508 9.09183Z" fill="#757586" stroke="#757586" stroke-width="1.2"/>
</g>
</svg>
