<svg width="57" height="56" viewBox="0 0 57 56" fill="none" xmlns="http://www.w3.org/2000/svg">
<rect x="0.5" width="56" height="56" rx="12" fill="#34C759" fill-opacity="0.1"/>
<path d="M38.5 27.0801V28.0001C38.4988 30.1565 37.8005 32.2548 36.5093 33.9819C35.2182 35.7091 33.4033 36.9726 31.3354 37.584C29.2674 38.1954 27.0573 38.122 25.0345 37.3747C23.0117 36.6274 21.2847 35.2462 20.111 33.4372C18.9373 31.6281 18.3798 29.4882 18.5217 27.3364C18.6636 25.1847 19.4972 23.1364 20.8983 21.4972C22.2994 19.8579 24.1928 18.7155 26.2962 18.2403C28.3996 17.765 30.6003 17.9824 32.57 18.8601M38.5 20.0001L28.5 30.0101L25.5 27.0101" stroke="#34C759" stroke-width="2" stroke-linecap="round" stroke-linejoin="round"/>
</svg>
