<svg xmlns="http://www.w3.org/2000/svg" width="20" height="20" viewBox="0 0 20 20" fill="none">
<g id="ic:baseline-telegram">
<path id="Vector" d="M9.99984 1.66675C5.39984 1.66675 1.6665 5.40008 1.6665 10.0001C1.6665 14.6001 5.39984 18.3334 9.99984 18.3334C14.5998 18.3334 18.3332 14.6001 18.3332 10.0001C18.3332 5.40008 14.5998 1.66675 9.99984 1.66675ZM13.8665 7.33341C13.7415 8.65008 13.1998 11.8501 12.9248 13.3251C12.8082 13.9501 12.5748 14.1584 12.3582 14.1834C11.8748 14.2251 11.5082 13.8667 11.0415 13.5584C10.3082 13.0751 9.8915 12.7751 9.18317 12.3084C8.35817 11.7667 8.8915 11.4667 9.3665 10.9834C9.4915 10.8584 11.6248 8.91675 11.6665 8.74175C11.6723 8.71524 11.6715 8.68772 11.6643 8.66158C11.657 8.63544 11.6435 8.61147 11.6248 8.59175C11.5748 8.55008 11.5082 8.56675 11.4498 8.57508C11.3748 8.59175 10.2082 9.36675 7.93317 10.9001C7.59984 11.1251 7.29984 11.2417 7.03317 11.2334C6.73317 11.2251 6.1665 11.0667 5.7415 10.9251C5.2165 10.7584 4.80817 10.6667 4.8415 10.3751C4.85817 10.2251 5.0665 10.0751 5.45817 9.91675C7.8915 8.85841 9.50817 8.15841 10.3165 7.82508C12.6332 6.85842 13.1082 6.69175 13.4248 6.69175C13.4915 6.69175 13.6498 6.70841 13.7498 6.79175C13.8332 6.85841 13.8582 6.95008 13.8665 7.01675C13.8582 7.06675 13.8748 7.21675 13.8665 7.33341Z" fill="#5B99DF"/>
</g>
</svg>