<svg width="32" height="32" viewBox="0 0 32 32" fill="none" xmlns="http://www.w3.org/2000/svg">
<g clip-path="url(#clip0_1480_20564)">
<path d="M25.4797 2.37695H10.7998V8.4646H28.615V5.51099C28.615 3.78271 27.2085 2.37695 25.4797 2.37695Z" fill="#FCE3D0"/>
<path d="M17.1697 9.4021H0V3.75342C0 1.68359 1.68433 0 3.75488 0H9.24463C9.79028 0 10.3159 0.11499 10.7935 0.331055C11.4604 0.631592 12.0334 1.12695 12.4353 1.77417L17.1697 9.4021Z" fill="#B85103"/>
<path d="M32 10.666V28.8613C32 30.5918 30.5913 31.9993 28.8601 31.9993H3.13989C1.40869 31.9993 0 30.5918 0 28.8613V7.52734H28.8601C30.5913 7.52734 32 8.9353 32 10.666Z" fill="#F76C02"/>
<path d="M32 10.666V28.8613C32 30.5918 30.5913 31.9993 28.8601 31.9993H16V7.52734H28.8601C30.5913 7.52734 32 8.9353 32 10.666Z" fill="#FF9544"/>
<path d="M24.4175 19.7632C24.4175 24.405 20.6414 28.1814 16 28.1814C11.3586 28.1814 7.58252 24.405 7.58252 19.7632C7.58252 15.1221 11.3586 11.3457 16 11.3457C20.6414 11.3457 24.4175 15.1221 24.4175 19.7632Z" fill="#FFEFE3"/>
<path d="M24.4175 19.7632C24.4175 24.405 20.6414 28.1814 16 28.1814V11.3457C20.6414 11.3457 24.4175 15.1221 24.4175 19.7632Z" fill="#FCE3D0"/>
<path d="M18.713 19.866C18.5375 20.0146 18.3224 20.0872 18.1093 20.0872C17.8424 20.0872 17.5773 19.9741 17.3918 19.7539L16.9374 19.2153V22.7415C16.9374 23.259 16.5175 23.679 15.9999 23.679C15.4823 23.679 15.0624 23.259 15.0624 22.7415V19.2153L14.6081 19.7539C14.2736 20.1497 13.6825 20.2002 13.2868 19.866C12.8913 19.5322 12.8405 18.9409 13.1742 18.5452L15.0299 16.3452C15.2719 16.0591 15.6249 15.8945 15.9999 15.8945C16.3749 15.8945 16.7279 16.0591 16.9699 16.3452L18.8256 18.5452C19.1593 18.9409 19.1086 19.5322 18.713 19.866Z" fill="#FF9544"/>
<path d="M18.7131 19.866C18.5376 20.0146 18.3225 20.0872 18.1094 20.0872C17.8425 20.0872 17.5774 19.9741 17.3918 19.7539L16.9375 19.2153V22.7415C16.9375 23.259 16.5176 23.679 16 23.679V15.8945C16.375 15.8945 16.728 16.0591 16.97 16.3452L18.8257 18.5452C19.1594 18.9409 19.1086 19.5322 18.7131 19.866Z" fill="#F76C02"/>
</g>
<defs>
<clipPath id="clip0_1480_20564">
<rect width="32" height="32" fill="white"/>
</clipPath>
</defs>
</svg>
