<svg xmlns="http://www.w3.org/2000/svg" width="26" height="25" viewBox="0 0 26 25" fill="none">
<g id="Livello_1" clip-path="url(#clip0_288_12543)">
<path id="Vector" d="M24.7002 0.5H7.0998C6.4924 0.5 6 0.992398 6 1.5998V6.5L16.2 9.5L25.8 6.5V1.5998C25.8 0.992398 25.3076 0.5 24.7002 0.5Z" fill="#41A5EE"/>
<path id="Vector_2" d="M25.8 6.5H6V12.5L16.2 14.3L25.8 12.5V6.5Z" fill="#2B7CD3"/>
<path id="Vector_3" d="M6 12.5V18.5L15.6 19.7L25.8 18.5V12.5H6Z" fill="#185ABD"/>
<path id="Vector_4" d="M7.0998 24.5H24.7002C25.3076 24.5 25.8 24.0076 25.8 23.4002V18.5H6V23.4002C6 24.0076 6.4924 24.5 7.0998 24.5Z" fill="#103F91"/>
<path id="Vector_5" opacity="0.1" d="M13.3002 5.2998H6V20.2998H13.3002C13.9068 20.2978 14.398 19.8066 14.4 19.2V6.39961C14.398 5.79303 13.9068 5.30178 13.3002 5.2998Z" fill="black"/>
<path id="Vector_6" opacity="0.2" d="M12.7002 5.90039H6V20.9004H12.7002C13.3068 20.8984 13.798 20.4072 13.8 19.8006V7.00019C13.798 6.39361 13.3068 5.90237 12.7002 5.90039Z" fill="black"/>
<path id="Vector_7" opacity="0.2" d="M12.7002 5.90039H6V19.7004H12.7002C13.3068 19.6984 13.798 19.2072 13.8 18.6006V7.00019C13.798 6.39361 13.3068 5.90237 12.7002 5.90039Z" fill="black"/>
<path id="Vector_8" opacity="0.2" d="M12.1002 5.90039H6V19.7004H12.1002C12.7068 19.6984 13.198 19.2072 13.2 18.6006V7.00019C13.198 6.39361 12.7068 5.90237 12.1002 5.90039Z" fill="black"/>
<path id="Vector_9" d="M1.0998 5.90039H12.1002C12.7076 5.90039 13.2 6.39279 13.2 7.00019V18.0006C13.2 18.608 12.7076 19.1004 12.1002 19.1004H1.0998C0.492398 19.1004 0 18.608 0 18.0006V7.00019C0 6.39279 0.492398 5.90039 1.0998 5.90039Z" fill="url(#paint0_linear_288_12543)"/>
<path id="Vector_10" d="M4.51299 14.3349C4.53459 14.5046 4.54899 14.6523 4.55559 14.7789H4.58078C4.59038 14.6589 4.61037 14.5142 4.64078 14.3451C4.67118 14.1758 4.69858 14.0328 4.72298 13.9161L5.87978 8.92525H7.37559L8.57559 13.8411C8.64531 14.1467 8.69522 14.4566 8.72499 14.7686H8.74479C8.76716 14.4663 8.80885 14.1657 8.86959 13.8686L9.82659 8.92285H11.188L9.50679 16.0749H7.91619L6.77619 11.3384C6.74319 11.2022 6.7054 11.024 6.66399 10.805C6.62259 10.586 6.59679 10.4258 6.58659 10.325H6.56679C6.55359 10.4414 6.52778 10.6142 6.48938 10.8434C6.45098 11.0726 6.42018 11.2422 6.39698 11.3522L5.32537 16.0736H3.70777L2.01758 8.92524H3.40357L4.44578 13.9262C4.46919 14.0288 4.49139 14.1656 4.51299 14.3349Z" fill="white"/>
</g>
<defs>
<linearGradient id="paint0_linear_288_12543" x1="2.29311" y1="5.04103" x2="10.9069" y2="19.9598" gradientUnits="userSpaceOnUse">
<stop stop-color="#2368C4"/>
<stop offset="0.5" stop-color="#1A5DBE"/>
<stop offset="1" stop-color="#1146AC"/>
</linearGradient>
<clipPath id="clip0_288_12543">
<rect width="25.8" height="24" fill="white" transform="translate(0 0.5)"/>
</clipPath>
</defs>
</svg>